<svg xmlns="http://www.w3.org/2000/svg" width="31.717" height="36" viewBox="0 0 31.717 36">
  <g id="donthuoc" transform="translate(-30.462 0)">
    <path id="Union_23" data-name="Union 23" d="M-2336.819-950.169l8.822-8.823a6.332,6.332,0,0,1-5.157,9.992A6.315,6.315,0,0,1-2336.819-950.169Zm-8.007-3.118v-3.164h6.328v3.164a3.168,3.168,0,0,1-3.165,3.164A3.167,3.167,0,0,1-2344.827-953.286Zm-12.657,2.11a1.055,1.055,0,0,1-1.055-1.055v-31.713a1.055,1.055,0,0,1,1.055-1.055h17.93v7.383a1.055,1.055,0,0,0,1.055,1.055h7.383v13.047a8.522,8.522,0,0,0-5.318.411,5.281,5.281,0,0,0-5.229-4.6,5.279,5.279,0,0,0-5.273,5.274v9.141a5.236,5.236,0,0,0,.442,2.11Zm3.164-7.384a1.055,1.055,0,0,0,1.055,1.055h4.218a1.055,1.055,0,0,0,1.055-1.055,1.055,1.055,0,0,0-1.055-1.055h-4.218A1.055,1.055,0,0,0-2354.319-958.56Zm.035-8.4a1.054,1.054,0,0,0,1.055,1.055h6.328a1.055,1.055,0,0,0,1.055-1.055,1.055,1.055,0,0,0-1.055-1.055h-6.328A1.055,1.055,0,0,0-2354.284-966.964Zm-.035-4.254a1.055,1.055,0,0,0,1.055,1.055h10.546a1.054,1.054,0,0,0,1.055-1.055,1.054,1.054,0,0,0-1.055-1.055h-10.546A1.055,1.055,0,0,0-2354.319-971.218Zm0-4.218a1.054,1.054,0,0,0,1.055,1.054h10.546a1.054,1.054,0,0,0,1.055-1.054,1.054,1.054,0,0,0-1.055-1.055h-10.546A1.055,1.055,0,0,0-2354.319-975.436Zm17.93,14.671a6.344,6.344,0,0,1,6.9.282l-6.9,6.9Zm-8.437,2.205v-3.867a3.167,3.167,0,0,1,3.163-3.164,3.168,3.168,0,0,1,3.165,3.164v3.867Zm7.383-20.111v-5.71l5.71,5.71Z" transform="translate(2389 985)" fill="#00003c"/>
  </g>
</svg>
