<svg xmlns="http://www.w3.org/2000/svg" viewBox="0 0 70 70"><defs><style>.cls-1{fill:#bfe6bb;}.cls-2{fill:#fff;}.cls-3{fill:#cfb5d8;}.cls-4{fill:#9157a7;}.cls-5{fill:#3a3a3a;}</style></defs><title>DonThuoc</title><g id="Layer_2" data-name="Layer 2"><g id="Layer_1-2" data-name="Layer 1"><rect class="cls-1" width="70" height="70"/><path class="cls-2" d="M57,42.39l.12-6.67-20.7-.37L36,60.94s-.23,3.4,2.28,3.44l20.7.37a3.38,3.38,0,0,1-2.28-3.41l.06-3.39,7.1.13.18-10s.58-2.31-1.67-2.28l.06-3.32Z"/><path class="cls-3" d="M63.25,51.69,65,53.86l1.31-1.37a1.66,1.66,0,0,0,0-2,1.36,1.36,0,0,0-1.89,0Z"/><path class="cls-4" d="M63.25,51.69,65,53.86,63.88,55s-1.28.65-1.89,0,0-2,0-2Z"/><rect class="cls-4" x="58.02" y="41.4" width="2.5" height="6.24" transform="translate(13.7 102.99) rotate(-88.98)"/><path class="cls-4" d="M41.92,37.32a4.06,4.06,0,1,0,3.67,4.12h0A3.91,3.91,0,0,0,41.92,37.32Zm2,4.66-1.45,0,0,1.57L41,43.5l0-1.57-1.37,0,0-1.48,1.37,0,0-1.48,1.45,0,0,1.48,1.37,0Z"/><path class="cls-3" d="M64.19,49.28l0,1.45-2,2a1.77,1.77,0,0,0-.54,1.84l-7.52-.13.09-5.14Z"/><path class="cls-3" d="M56.76,57.95l-.07,3.86s.36,2.9,1.54,2.92l-2.43,0a3.07,3.07,0,0,1-1.51-2.78l.07-4Z"/><path class="cls-5" d="M36.46,49.78l.25-14.23,16.2.29a.28.28,0,0,0,0-.56L36.47,35a.27.27,0,0,0-.26.27l-.26,14.52a.26.26,0,0,0,.3.28A.28.28,0,0,0,36.46,49.78Z"/><path class="cls-5" d="M54.46,35.87l2.45,0-.09,5.28a.28.28,0,0,0,.2.29.26.26,0,0,0,.31-.27l.1-5.57a.27.27,0,0,0-.25-.28l-2.71,0a.28.28,0,0,0,0,.56Z"/><path class="cls-5" d="M42.73,43.53l0-1.3,1.11,0a.27.27,0,0,0,.26-.27l0-1.48a.27.27,0,0,0-.25-.28l-1.2,0,0-1.2a.27.27,0,0,0-.25-.28l-1.37,0a.27.27,0,0,0-.26.27l0,1.2-1.11,0a.27.27,0,0,0-.26.27l0,1.48a.27.27,0,0,0,.25.28l1.11,0,0,1.3a.27.27,0,0,0,.25.28l1.45,0A.27.27,0,0,0,42.73,43.53Zm-.49-1.58,0,1.3-.94,0,0-1.3a.27.27,0,0,0-.25-.28l-1.11,0,0-.93,1.11,0a.27.27,0,0,0,.26-.27l0-1.2.94,0,0,1.2a.27.27,0,0,0,.25.28l1.11,0,0,.93-1.11,0A.27.27,0,0,0,42.25,41.95Z"/><path class="cls-5" d="M45.64,41.31a3.89,3.89,0,1,0-4,4.13A4.05,4.05,0,0,0,45.64,41.31Zm-7.25-.13a3.38,3.38,0,1,1,3.3,3.7A3.51,3.51,0,0,1,38.4,41.18Z"/><path class="cls-5" d="M41.09,47.94h-.68a.28.28,0,0,0,0,.56h.68a.28.28,0,0,0,0-.56Z"/><path class="cls-5" d="M43.06,48.53l10.31.18a.28.28,0,0,0,0-.56L43.06,48a.28.28,0,0,0,0,.56Z"/><path class="cls-5" d="M41,51.74h-.68a.28.28,0,0,0,0,.56H41a.28.28,0,0,0,0-.56Z"/><path class="cls-5" d="M53.32,52,43,51.78a.28.28,0,0,0,0,.56l10.32.18a.28.28,0,0,0,0-.56Z"/><path class="cls-5" d="M41,55.54h-.68a.28.28,0,0,0,0,.56h.68a.28.28,0,0,0,0-.56Z"/><path class="cls-5" d="M53.25,55.75l-10.32-.18a.28.28,0,0,0,0,.56l10.32.18a.28.28,0,0,0,0-.56Z"/><path class="cls-5" d="M40.89,59.33h-.68a.28.28,0,0,0,0,.56h.68a.28.28,0,0,0,0-.56Z"/><path class="cls-5" d="M53.18,59.55l-10.32-.18a.28.28,0,0,0,0,.56l10.32.18a.28.28,0,0,0,0-.56Z"/><path class="cls-5" d="M63.9,55.76a.27.27,0,0,0-.26.27l0,1.76-4-.07a.33.33,0,0,0-.26.31c0,.15.25.34.25.34l4.26.08a.26.26,0,0,0,.26-.27l0-2.14a.26.26,0,0,0-.25-.28Z"/><path class="cls-5" d="M55.93,42.37l0,2.24a.28.28,0,0,0,.2.29.26.26,0,0,0,.31-.27l0-2,5.73.1,0,2a.28.28,0,0,0,.2.29.26.26,0,0,0,.31-.27l0-2.26a.27.27,0,0,0-.25-.28l-6.24-.11A.27.27,0,0,0,55.93,42.37Z"/><path class="cls-5" d="M66.58,50.25a1.52,1.52,0,0,0-2.26,0l-.06.06.06-3.3a1.34,1.34,0,0,0-1.26-1.41h0l-7.43-.13a1.34,1.34,0,0,0-1.31,1.37v-.11l-.2,11.22a.27.27,0,0,0,.25.28l2.14,0-.06,3.59a3.64,3.64,0,0,0,1.17,2.64l-19.3-.34a2.61,2.61,0,0,1-2.05-2.64l.19-10.38a.28.28,0,0,0-.2-.29.26.26,0,0,0-.31.27l-.19,10.39s0,2.78,2.5,3.2h0L59,65a.26.26,0,0,0,.28-.25.27.27,0,0,0-.23-.3A2.6,2.6,0,0,1,57,61.82L57,58.23l1.49,0a.28.28,0,0,0,0-.56l-3.89-.07.05-2.87,6.95.12a1.56,1.56,0,0,0,1.33.81,1.53,1.53,0,0,0,1.14-.48l2.44-2.53A1.82,1.82,0,0,0,66.58,50.25Zm-11.89,4,.13-7.5a.8.8,0,0,1,.78-.82l7.44.13a.8.8,0,0,1,.75.85l0,2.41-8.2-.15a.28.28,0,0,0,0,.56h0l8.21.15,0,1-.64.66h0l-1.22,1.27a1.8,1.8,0,0,0-.49,1.22,1.82,1.82,0,0,0,0,.38Zm9,.63a1,1,0,0,1-1.53,0,1.24,1.24,0,0,1,0-1.65l.06-.06,1-1.08,1.5,1.68Zm2.43-2.53-1,1.08-1.5-1.68.52-.55h0l.5-.53a1,1,0,0,1,1.53,0,1.24,1.24,0,0,1,0,1.65Z"/><path class="cls-5" d="M34.72,48.74a.28.28,0,0,0-.21.28l-.06,3.44a.26.26,0,1,0,.51,0L35,49A.26.26,0,0,0,34.72,48.74Z"/><path class="cls-5" d="M34.91,38.3a.28.28,0,0,0-.21.28L34.54,47a.26.26,0,1,0,.51,0l.15-8.48A.26.26,0,0,0,34.91,38.3Z"/><path class="cls-5" d="M40.65,34.23h.68a.28.28,0,0,0,0-.56h-.68a.28.28,0,0,0,0,.56Z"/><path class="cls-5" d="M43.11,34.27l8.6.15a.28.28,0,0,0,0-.56l-8.6-.15a.28.28,0,0,0,0,.56Z"/><path class="cls-5" d="M46.65,65.64h-.73a.28.28,0,0,0,0,.56h.73a.28.28,0,0,0,0-.56Z"/><path class="cls-5" d="M54.85,66l-6.93-.12a.28.28,0,0,0,0,.56l6.93.12a.28.28,0,0,0,0-.56Z"/><path class="cls-5" d="M61.7,59.33l-3.56-.06a.28.28,0,0,0,0,.56l3.56.06a.28.28,0,0,0,0-.56Z"/><path class="cls-5" d="M58.65,41.59h.67a.28.28,0,0,0,0-.56h-.67a.28.28,0,0,0,0,.56Z"/></g></g></svg>