<svg xmlns="http://www.w3.org/2000/svg" width="26.452" height="36" viewBox="0 0 26.452 36">
  <g id="ketquakham" transform="translate(0 0)">
    <path id="Union_22" data-name="Union 22" d="M-2629.633-695a2.3,2.3,0,0,1-2.368-2.2v-26.34a2.31,2.31,0,0,1,2.368-2.213h3.5v2.011a.67.67,0,0,0,.654.649h13.362a.639.639,0,0,0,.618-.649v-2.011h3.58a2.31,2.31,0,0,1,2.368,2.213v26.34a2.3,2.3,0,0,1-2.368,2.2Zm2.113-5.635a.626.626,0,0,0,.625.626h16.238a.626.626,0,0,0,.626-.626.626.626,0,0,0-.626-.626h-16.238A.626.626,0,0,0-2627.52-700.635Zm2.347-3.13a.626.626,0,0,0,.626.625H-2613a.625.625,0,0,0,.625-.625.626.626,0,0,0-.625-.626h-11.542A.627.627,0,0,0-2625.172-703.765Zm.372-11.426v3.13a.626.626,0,0,0,.626.626h3.208v3.208a.626.626,0,0,0,.625.626h3.131a.626.626,0,0,0,.625-.626v-3.208h3.209a.626.626,0,0,0,.625-.626v-3.13a.626.626,0,0,0-.625-.626h-3.209v-3.209a.626.626,0,0,0-.625-.626h-3.131a.626.626,0,0,0-.625.626v3.209h-3.208A.626.626,0,0,0-2624.8-715.191Zm-.078-9.157v-4.226h2.923a.627.627,0,0,0,.606-.47,2.6,2.6,0,0,1,2.525-1.956h.007a2.55,2.55,0,0,1,2.527,1.931.626.626,0,0,0,.612.494h2.929v4.226Z" transform="translate(2632 731)" fill="#00003c"/>
  </g>
</svg>
