<svg width="64" height="74" viewBox="0 0 64 74" fill="none" xmlns="http://www.w3.org/2000/svg">
<g clip-path="url(#clip0_147_487)">
<path d="M22.3261 9.61713C22.3903 9.24026 22.6954 8.97042 23.0863 8.94531L25.5115 8.78912C26.6123 8.71829 27.4021 7.83478 27.339 6.738L27.1927 4.19662C27.1657 3.72672 27.5049 3.34245 27.9812 3.30492L28.7777 3.24202C29.3851 3.19418 29.7793 2.66667 29.6816 2.06806C29.5109 1.02228 30.2344 0.101507 31.3087 0.00821426C32.3914 -0.0861359 33.4199 0.694565 33.6034 1.75356C33.6306 1.91081 33.6888 2.06568 33.7814 2.20311C34.0399 2.58685 34.4834 2.79194 34.9128 2.75811L35.7344 2.69336C36.2322 2.65398 36.713 2.98275 36.8491 3.45688L37.5865 6.02442C37.9053 7.13469 39.0381 7.9183 40.222 7.84192L42.8823 7.6704C43.318 7.64238 43.7511 7.87945 43.9597 8.26108L45.6281 11.3088C45.7647 11.5586 45.6084 11.8345 45.3224 11.8498L22.2461 13.0772C21.9936 13.0906 21.774 12.8512 21.8156 12.6078L22.3261 9.61713ZM31.6818 2.20232C31.9995 2.17668 32.2147 1.9042 32.1621 1.5942C32.1094 1.28392 31.8089 1.05426 31.4915 1.08095C31.1745 1.10764 30.9606 1.37986 31.013 1.68907C31.0655 1.99802 31.3646 2.22795 31.6818 2.20232Z" fill="url(#paint0_linear_147_487)"/>
<path d="M13.1153 10.4528L56.5418 7.03402C57.6129 6.94972 58.4851 7.67333 58.4851 8.65066V67.3615C58.4851 68.3388 57.6132 69.0833 56.5418 69.0249L13.1153 66.6556C12.2386 66.6077 11.5306 65.8566 11.5306 64.9773V12.1694C11.5306 11.2903 12.2386 10.5218 13.1153 10.4528Z" fill="#97A6B7"/>
<path d="M12.1969 10.4528L55.6237 7.03402C56.6948 6.94972 57.567 7.67333 57.567 8.65066V67.3615C57.567 68.3388 56.6951 69.0833 55.6237 69.0249L12.1972 66.6556C11.3206 66.6077 10.6125 65.8566 10.6125 64.9773V12.1694C10.6122 11.2903 11.3203 10.5218 12.1969 10.4528Z" fill="#D8DEE8"/>
<path d="M55.7411 68.0987C56.2481 68.0987 56.645 67.7747 56.645 67.3614V8.65056C56.645 8.25492 56.2785 7.95654 55.7928 7.95654C55.7608 7.95654 55.728 7.95787 55.6955 7.96051L12.2688 11.3793C11.8706 11.4105 11.534 11.7723 11.534 12.1693V64.9775C11.534 65.3631 11.8604 65.7064 12.2468 65.7275L55.6732 68.0969C55.6963 68.0982 55.7188 68.0987 55.7411 68.0987Z" fill="url(#paint1_linear_147_487)"/>
<path d="M14.9479 61.1065L52.3224 62.6436V12.4727L14.9479 14.9958V61.1065Z" fill="white"/>
<path d="M35.8227 23.0239L48.3133 22.4454V21.7305L35.8227 22.3285V23.0239Z" fill="#D8DEE8"/>
<path d="M38.8165 24.1161L48.3133 23.7022V23.2622L38.8165 23.6853V24.1161Z" fill="#D8DEE8"/>
<path d="M38.8165 25.0395L48.3133 24.6451V24.2051L38.8165 24.6087V25.0395Z" fill="#D8DEE8"/>
<path d="M38.8165 25.9627L48.3133 25.588V25.1479L38.8165 25.532V25.9627Z" fill="#D8DEE8"/>
<path d="M38.8165 26.8855L48.3133 26.5303V26.0903L38.8165 26.4548V26.8855Z" fill="#D8DEE8"/>
<path d="M35.8227 31.3683L48.3133 31.024V30.3091L35.8227 30.673V31.3683Z" fill="#D8DEE8"/>
<path d="M38.8165 32.5166L48.3133 32.2809V31.8408L38.8165 32.0858V32.5166Z" fill="#D8DEE8"/>
<path d="M38.8165 33.4399L48.3133 33.2237V32.7837L38.8165 33.0091V33.4399Z" fill="#D8DEE8"/>
<path d="M38.8165 34.3627L48.3133 34.1658V33.7261L38.8165 33.932V34.3627Z" fill="#D8DEE8"/>
<path d="M38.8165 35.2861L48.3133 35.1087V34.6689L38.8165 34.8553V35.2861Z" fill="#D8DEE8"/>
<path d="M17.2701 41.109L48.3133 40.9243V39.6987L17.2701 39.9667V41.109Z" fill="#D8DEE8"/>
<path d="M42.3926 43.5627L48.3133 43.5616V42.2012L42.3926 42.2197V43.5627Z" fill="#D8DEE8"/>
<path d="M42.3926 45.2674L48.3133 45.2886V43.928L42.3926 43.9243V45.2674Z" fill="#D8DEE8"/>
<path d="M42.3926 46.972L48.3133 47.0156V45.6548L42.3926 45.6289V46.972Z" fill="#D8DEE8"/>
<path d="M42.3926 48.677L48.3133 48.7428V47.3823L42.3926 47.334V48.677Z" fill="#D8DEE8"/>
<path d="M35.8387 43.5639L41.588 43.5629V42.2222L35.8387 42.2404V43.5639Z" fill="#D8DEE8"/>
<path d="M41.6325 45.31V43.8789L35.7939 43.8755V45.2891L41.6325 45.31ZM41.5431 43.9693V45.2196L35.8835 45.1992V43.9659L41.5431 43.9693Z" fill="#D8DEE8"/>
<path d="M41.6325 47.0117V45.5808L35.7939 45.5552V46.9689L41.6325 47.0117ZM41.5431 45.6707V46.9211L35.8835 46.8796V45.6461L41.5431 45.6707Z" fill="#D8DEE8"/>
<path d="M41.6325 48.7135V47.2824L35.7939 47.2349V48.6485L41.6325 48.7135ZM41.5431 47.372V48.6224L35.8835 48.5595V47.326L41.5431 47.372Z" fill="#D8DEE8"/>
<path d="M29.4723 43.5652L35.0573 43.5641V42.2427L29.4723 42.2604V43.5652Z" fill="#D8DEE8"/>
<path d="M35.1018 45.2866V43.875L29.4275 43.8716V45.2662L35.1018 45.2866ZM35.0124 43.9651V45.1959L29.5169 45.1764V43.9617L35.0124 43.9651Z" fill="#D8DEE8"/>
<path d="M35.1018 46.9638V45.5522L29.4275 45.5273V46.9221L35.1018 46.9638ZM35.0124 45.642V46.8729L29.5169 46.8325V45.6177L35.0124 45.642Z" fill="#D8DEE8"/>
<path d="M35.1018 48.641V47.2294L29.4275 47.1831V48.5778L35.1018 48.641ZM35.0124 47.3187V48.5495L29.5169 48.4885V47.2738L35.0124 47.3187Z" fill="#D8DEE8"/>
<path d="M23.2853 43.5666L28.7129 43.5655V42.2632L23.2853 42.2804V43.5666Z" fill="#D8DEE8"/>
<path d="M28.7576 45.2639V43.8711L23.2407 43.8677V45.2441L28.7576 45.2639ZM28.668 43.9612V45.1732L23.3298 45.1542V43.9581L28.668 43.9612Z" fill="#D8DEE8"/>
<path d="M28.7576 46.9166V45.5238L23.2407 45.4995V46.8759L28.7576 46.9166ZM28.668 45.6137V46.8257L23.3298 46.7866V45.5904L28.668 45.6137Z" fill="#D8DEE8"/>
<path d="M28.7576 48.57V47.1772L23.2407 47.1323V48.5086L28.7576 48.57ZM28.668 47.2666V48.4785L23.3298 48.4191V47.223L28.668 47.2666Z" fill="#D8DEE8"/>
<path d="M17.2701 43.5672L22.5469 43.5664V42.2822L17.2701 42.2989V43.5672Z" fill="#D8DEE8"/>
<path d="M22.5919 45.2417V43.8674L17.2256 43.8643V45.2227L22.5919 45.2417ZM22.5025 43.9576V45.1513L17.315 45.1328V43.9546L22.5025 43.9576Z" fill="#D8DEE8"/>
<path d="M22.5919 46.8714V45.4972L17.2256 45.4736V46.8321L22.5919 46.8714ZM22.5025 45.5867V46.7805L17.315 46.7425V45.5643L22.5025 45.5867Z" fill="#D8DEE8"/>
<path d="M22.5919 48.5016V47.1271L17.2256 47.0835V48.4421L22.5919 48.5016ZM22.5025 47.2164V48.4104L17.315 48.3527V47.1744L22.5025 47.2164Z" fill="#D8DEE8"/>
<g opacity="0.3">
<path opacity="0.3" d="M23.7335 13.4658C23.7335 15.1004 24.5669 16.6428 25.5993 16.5786C26.6366 16.5141 27.4813 14.8536 27.4813 13.2047C27.4813 11.5558 26.6366 10.9612 25.5993 11.0389C24.5669 11.1163 23.7335 11.8312 23.7335 13.4658Z" fill="url(#paint2_linear_147_487)"/>
<path opacity="0.3" d="M18.3351 33.1067C18.4108 32.8799 18.6578 32.6909 18.8589 32.5691C19.0342 32.4629 19.1493 32.2808 19.1601 32.0796L19.2767 29.8879C19.2767 29.8879 19.2767 29.8879 19.2767 28.8226C19.2767 27.7572 19.2767 26.8254 19.6815 26.0098C20.087 25.1926 20.087 22.7913 20.087 22.7913C19.9518 19.9973 21.3084 19.655 22.1263 19.2073C22.712 18.8867 23.5789 18.3439 24.0288 18.0585C24.2154 17.9401 24.3433 17.7498 24.379 17.5386L24.5798 16.3501C24.8726 16.6807 25.2223 16.8721 25.5993 16.8488C25.9768 16.8256 26.3284 16.5904 26.6235 16.2217L26.8264 17.3914C26.8626 17.5994 26.9921 17.7754 27.1814 17.8724C27.6389 18.1068 28.5257 18.554 29.1287 18.8109C29.9767 19.1722 31.3973 19.367 31.255 22.2493C31.255 22.2493 31.255 24.7129 31.6828 25.5166C32.1114 26.3219 32.1114 27.2818 32.1114 28.3788C32.1114 29.4759 32.1114 29.4759 32.1114 29.4759L32.2352 31.7268C32.2464 31.9335 32.3689 32.1148 32.5555 32.215C32.7697 32.3297 33.0337 32.512 33.1147 32.7425C33.2583 33.1513 33.834 33.9637 34.2668 34.0922C34.2668 34.0922 34.2668 34.3678 33.9782 34.3739C33.6901 34.38 33.2583 33.9764 33.2583 33.9764L33.5171 36.0743C33.5326 36.1993 33.4301 36.3111 33.2985 36.3133C33.192 36.3151 33.1011 36.2437 33.0819 36.1441L32.8276 34.8103V36.5228C32.8276 36.6391 32.7293 36.7348 32.6079 36.7366H32.6006C32.486 36.7385 32.3906 36.6555 32.382 36.5461L32.2543 34.9588L32.1279 36.4145C32.1185 36.5234 32.0236 36.6087 31.9098 36.6106L31.9012 36.6108C31.7803 36.6127 31.6826 36.5205 31.6826 36.4044L31.5399 34.8359L31.4353 35.9062C31.4131 36.0024 31.3247 36.0722 31.2225 36.0741L31.1126 36.0759C31.1126 36.0759 30.7475 33.3918 31.143 32.5453C31.2052 32.4121 31.1978 32.2604 31.137 32.1299C30.7157 31.2255 29.3329 28.0955 29.6936 26.6895C29.6936 26.6895 29.5523 24.9104 29.411 24.5073C29.411 24.5073 28.5703 26.0418 28.5703 27.2667C28.5703 28.492 30.204 31.5955 30.204 33.2327C30.204 34.87 29.9767 36.9142 29.4113 38.6947C28.8471 40.4707 28.8471 42.1043 28.8471 42.6487C28.8471 43.1932 28.9882 45.6441 28.8471 46.4603C28.7063 47.2758 28.0035 49.8513 27.723 50.798C27.4428 51.7433 27.723 52.4273 27.8633 52.8375C28.0035 53.2479 28.4251 53.6652 28.144 53.9306C27.8633 54.1957 26.7441 54.1687 26.7441 54.1687C26.7441 54.1687 26.0476 54.0167 25.9084 53.8782C25.7694 53.7398 25.9084 51.1741 25.9084 51.1741C25.9084 51.1741 26.3257 49.6925 26.1865 47.6612C26.0473 45.6312 25.9084 44.684 26.3257 44.0082C26.3257 44.0082 26.1865 42.3844 26.1865 41.5728C26.1865 40.7609 25.7694 37.2494 25.9084 36.3008L26.1218 34.8438C26.1559 34.6107 25.9705 34.4067 25.7293 34.4117L25.4703 34.4173C25.2297 34.4223 25.0449 34.6337 25.0789 34.865L25.2915 36.3114C25.4302 37.2544 25.0145 40.7689 25.0145 41.5786C25.0145 42.3881 24.876 44.0074 24.876 44.0074C25.2915 44.6829 25.1529 45.6275 25.0145 47.6509C24.876 49.6729 25.2915 51.164 25.2915 51.164C25.2915 51.164 25.4302 53.7326 25.2915 53.8645C25.1529 53.9961 24.4616 54.1145 24.4616 54.1145C24.4616 54.1145 23.3597 54.0878 23.085 53.8127C22.8108 53.5378 23.2224 53.1441 23.3595 52.7437C23.4969 52.3433 23.7721 51.6759 23.4969 50.7295C23.2221 49.7845 22.5366 47.2256 22.4 46.4198C22.2632 45.6145 22.4 43.2008 22.4 42.6643C22.4 42.1278 22.4 40.5183 21.8537 38.7809C21.3087 37.048 21.0761 35.0383 21.0761 33.4325C21.0761 31.8267 22.6766 28.7155 22.6766 27.5086C22.6766 26.3016 21.8537 24.5081 21.8537 24.5081C21.7174 24.9156 21.581 27.0038 21.581 27.0038C21.9292 28.3588 20.6009 31.512 20.1995 32.4166C20.1416 32.5469 20.1348 32.6954 20.1937 32.822C20.5704 33.6297 20.2226 36.2638 20.2226 36.2638L20.118 36.2657C20.021 36.2673 19.9368 36.2023 19.9159 36.1092L19.8168 35.0708L19.6818 36.6021C19.6818 36.715 19.5892 36.8077 19.4749 36.8096L19.4668 36.8098C19.3593 36.8114 19.2699 36.7316 19.261 36.6262L19.142 35.2178L19.0219 36.762C19.0138 36.8683 18.9241 36.9518 18.8164 36.9534H18.8096C18.6958 36.9552 18.6038 36.8653 18.6038 36.753V35.0954L18.3658 36.3946C18.3479 36.4916 18.263 36.5635 18.1636 36.5651C18.0407 36.5672 17.9455 36.4626 17.9597 36.3415L18.2009 34.3065C18.2009 34.3065 17.799 34.7133 17.5313 34.7191C17.2642 34.7246 17.2642 34.4595 17.2642 34.4595C17.665 34.3171 18.2009 33.5084 18.3351 33.1067Z" fill="url(#paint3_linear_147_487)"/>
</g>
<g opacity="0.65">
<g opacity="0.65">
<g opacity="0.65">
<g opacity="0.65">
<path opacity="0.65" d="M27.3098 32.3977C27.3481 32.3966 27.3803 32.367 27.383 32.3295C27.3856 32.2901 27.3552 32.2571 27.3145 32.2555C26.9111 32.2399 26.7234 32.029 26.7215 32.0269C26.6958 31.9973 26.6497 31.9941 26.6185 32.02C26.5873 32.0459 26.5829 32.0906 26.6086 32.1202C26.6177 32.1307 26.8387 32.3797 27.3046 32.3977C27.3067 32.3979 27.3082 32.3979 27.3098 32.3977Z" fill="url(#paint4_linear_147_487)"/>
<path opacity="0.65" d="M27.2225 32.394C27.2406 32.5867 27.4936 32.7156 27.7877 32.6823C28.0823 32.649 28.3064 32.4654 28.2883 32.2724C28.2703 32.0795 28.0163 31.9506 27.7219 31.9844C27.4278 32.0182 27.2042 32.2016 27.2225 32.394Z" fill="url(#paint5_linear_147_487)"/>
</g>
<g opacity="0.65">
<path opacity="0.65" d="M23.9021 32.4854C23.8643 32.4864 23.8326 32.4587 23.83 32.4214C23.8274 32.3826 23.8575 32.3482 23.8971 32.3445C24.295 32.3083 24.4806 32.0885 24.4824 32.0863C24.5078 32.0554 24.5535 32.0501 24.5844 32.0739C24.6153 32.098 24.6198 32.1424 24.5943 32.173C24.5852 32.1841 24.3666 32.4431 23.9071 32.4849C23.9052 32.4851 23.9037 32.4851 23.9021 32.4854Z" fill="url(#paint6_linear_147_487)"/>
<path opacity="0.65" d="M23.9881 32.4773C23.9702 32.6695 23.7214 32.8101 23.4325 32.7916C23.1442 32.7731 22.9252 32.6029 22.9428 32.4113C22.9606 32.2197 23.2086 32.0788 23.497 32.0968C23.7859 32.115 24.0059 32.2852 23.9881 32.4773Z" fill="url(#paint7_linear_147_487)"/>
</g>
</g>
<path opacity="0.65" d="M24.3475 31.4713C24.4702 31.008 25.015 30.8027 25.4294 30.7448C25.4675 30.7361 25.7317 30.7284 25.7697 30.7348C26.1855 30.7681 26.7347 30.9422 26.8587 31.401C26.9654 31.7956 26.7295 32.298 26.3955 32.4738C26.2246 32.5636 26.1029 32.5285 25.9994 32.659C25.9682 32.6984 25.9296 32.7639 25.8914 33.2915C25.8751 33.5153 25.873 33.6284 25.7834 33.6963C25.7364 33.7318 25.6777 33.7455 25.6337 33.7508C25.6324 33.7516 25.5752 33.754 25.5707 33.7537C25.5684 33.7537 25.5668 33.7532 25.5655 33.7524C25.5212 33.7492 25.4627 33.7381 25.4158 33.7048C25.3264 33.6411 25.3243 33.528 25.3081 33.3055C25.2701 32.7803 25.2315 32.7169 25.2006 32.6791C25.0973 32.5544 24.9762 32.5953 24.8066 32.5145C24.4752 32.3567 24.2422 31.8693 24.3475 31.4713Z" fill="url(#paint8_linear_147_487)"/>
<path opacity="0.65" d="M22.3511 32.3374C22.3593 32.2999 22.3967 32.2748 22.435 32.2816C22.4363 32.2819 22.5066 32.2938 22.5881 32.2827C22.699 32.2674 22.7813 32.1712 22.779 32.0618V32.0604C22.7771 31.992 22.7701 31.9227 22.7617 31.8514C22.7575 31.8154 22.7528 31.7795 22.7491 31.7409C22.7472 31.7216 22.7457 31.7015 22.7451 31.6796C22.7459 31.6566 22.7454 31.6334 22.7493 31.6101C22.7548 31.5636 22.7698 31.5186 22.7884 31.4756C22.7992 31.455 22.8086 31.433 22.8222 31.4143L22.8414 31.3852C22.8484 31.3759 22.8558 31.3672 22.8629 31.3582C22.9218 31.2869 22.9945 31.2319 23.0705 31.1912C23.1468 31.1502 23.2259 31.1209 23.3054 31.0987C23.3253 31.0934 23.3452 31.0889 23.3651 31.0842L23.395 31.077L23.4249 31.0715L23.4847 31.0609C23.5057 31.058 23.5293 31.0559 23.5508 31.0543C23.638 31.0498 23.7193 31.0572 23.7985 31.0686C23.8774 31.0799 23.9539 31.0966 24.0287 31.1161C24.1034 31.1357 24.177 31.1571 24.2494 31.1809C24.3217 31.2049 24.3928 31.2308 24.4636 31.2578C24.5341 31.285 24.6036 31.3144 24.6728 31.344C24.7493 31.3778 24.8251 31.4127 24.8998 31.4497C24.9727 31.4856 25.0589 31.4904 25.1365 31.4602C25.2613 31.4119 25.4228 31.3802 25.5992 31.3751C25.7759 31.3701 25.9377 31.3928 26.063 31.4343C26.1408 31.4602 26.2279 31.4507 26.301 31.4106C26.3763 31.3693 26.4525 31.3299 26.5299 31.2916C26.5996 31.2578 26.6699 31.2245 26.7409 31.193C26.8122 31.1619 26.8843 31.1317 26.9574 31.1032C27.0306 31.0749 27.1053 31.049 27.1811 31.025C27.2568 31.0009 27.3344 30.9795 27.4146 30.9636C27.4951 30.9475 27.5777 30.9354 27.6668 30.9346C27.6889 30.9348 27.713 30.9359 27.7342 30.9375L27.795 30.9446L27.8254 30.9483L27.8559 30.9536C27.8763 30.9573 27.8965 30.9605 27.9167 30.9647C27.9979 30.9824 28.0789 31.0075 28.1571 31.0443C28.2349 31.081 28.3096 31.1325 28.3699 31.2012C28.3773 31.21 28.3849 31.2184 28.3922 31.2274L28.4119 31.2559C28.4258 31.2744 28.4355 31.2959 28.4465 31.3162C28.4656 31.3588 28.4811 31.4034 28.4866 31.4502C28.4908 31.4732 28.4903 31.497 28.4911 31.5202C28.4905 31.5424 28.489 31.563 28.4869 31.5826C28.4829 31.622 28.4782 31.6587 28.4737 31.6955C28.4651 31.7684 28.458 31.839 28.4559 31.9082V31.9095C28.453 32.0203 28.5375 32.1133 28.6512 32.1231C28.7354 32.1302 28.8083 32.1141 28.8096 32.1138C28.8489 32.1048 28.8877 32.1281 28.8961 32.1659C28.9045 32.2037 28.8796 32.2417 28.8402 32.251C28.8347 32.2523 28.7826 32.2642 28.711 32.2661C28.7034 32.2663 28.6958 32.2663 28.6879 32.2663C28.6413 32.2661 28.6203 32.3242 28.658 32.3496C28.6782 32.3631 28.6979 32.3744 28.7144 32.3805L28.7152 32.3808C28.7396 32.3897 28.7556 32.4138 28.7511 32.4389C28.7453 32.4727 28.7113 32.4923 28.6801 32.4844C28.6394 32.4741 28.5985 32.4624 28.5597 32.4426C28.5212 32.4233 28.4842 32.3993 28.4523 32.3694C28.4203 32.3398 28.3925 32.3057 28.3702 32.269C28.3477 32.2322 28.3311 32.1934 28.3175 32.1543C28.3039 32.1149 28.2944 32.075 28.2881 32.0351C28.2816 31.9952 28.2774 31.9555 28.2753 31.9161C28.2732 31.8768 28.2727 31.8376 28.2732 31.7991C28.274 31.7605 28.2761 31.7221 28.2782 31.6846C28.2803 31.6471 28.2826 31.6101 28.2839 31.5755C28.2847 31.558 28.2847 31.5416 28.2842 31.5268C28.2824 31.5134 28.2826 31.4996 28.2787 31.4867C28.2748 31.46 28.264 31.4349 28.252 31.4108C28.2444 31.3995 28.2391 31.387 28.2297 31.3762L28.2171 31.3595L28.2024 31.3442C28.1631 31.303 28.1109 31.2702 28.0527 31.2441C27.9943 31.2182 27.9295 31.1997 27.8621 31.1867C27.8454 31.1835 27.8278 31.1814 27.8108 31.1788L27.7851 31.1748L27.7589 31.1724L27.7064 31.1674C27.6899 31.1666 27.6758 31.1661 27.6598 31.1658C27.5961 31.1666 27.5266 31.1767 27.4569 31.1912C27.3171 31.2208 27.1748 31.2652 27.0345 31.3154C26.8185 31.3926 26.6035 31.4824 26.3912 31.5757C26.3416 31.5974 26.3039 31.6386 26.2874 31.6889C26.2239 31.8826 26.0226 32.3863 25.7657 32.5187C25.7141 32.5454 25.685 32.6012 25.6965 32.6559C25.7403 32.8649 25.7688 33.1784 25.7688 33.403C25.7688 33.7701 25.6923 33.7598 25.5982 33.7619C25.5041 33.764 25.4275 33.7778 25.4275 33.411C25.4275 33.1866 25.4561 32.8715 25.4999 32.6604C25.5114 32.6051 25.4828 32.5512 25.4312 32.5274C25.1585 32.4014 24.9942 31.9082 24.9192 31.7171C24.9032 31.6762 24.8704 31.6439 24.8285 31.6278C24.6112 31.5435 24.3915 31.4634 24.171 31.3965C24.0326 31.3545 23.8926 31.3183 23.7552 31.2969C23.6868 31.2866 23.6186 31.2805 23.556 31.2834C23.5403 31.2845 23.5264 31.2858 23.5101 31.2877L23.4585 31.2953L23.4328 31.2993L23.4076 31.3046C23.3908 31.3083 23.3738 31.3114 23.3573 31.3154C23.2915 31.3321 23.228 31.354 23.1709 31.3828C23.114 31.4119 23.0629 31.447 23.0246 31.4901L23.0102 31.5062L22.9981 31.5234C22.989 31.5345 22.9837 31.5469 22.9764 31.5588C22.9648 31.5834 22.9543 31.6088 22.9504 31.6352C22.9467 31.6484 22.947 31.6619 22.9452 31.6754C22.9446 31.6899 22.9446 31.7063 22.9454 31.7235C22.9467 31.7578 22.9491 31.7943 22.9512 31.831C22.9533 31.868 22.9551 31.9056 22.9559 31.9439C22.9564 31.9819 22.9559 32.0208 22.9538 32.0596C22.952 32.0985 22.9478 32.1381 22.9415 32.1778C22.9355 32.2174 22.9263 32.2573 22.9129 32.297C22.8998 32.3364 22.8836 32.3757 22.8615 32.413C22.8398 32.4503 22.8128 32.4854 22.7816 32.5163C22.7504 32.5475 22.7145 32.5729 22.677 32.5938C22.6395 32.6149 22.5994 32.6287 22.5601 32.6408C22.5299 32.6501 22.4966 32.6324 22.4911 32.5993C22.4869 32.5747 22.5024 32.5502 22.526 32.5401L22.5268 32.5399C22.5428 32.533 22.5619 32.5208 22.5816 32.5066C22.6185 32.4796 22.5978 32.4233 22.5527 32.426C22.5451 32.4265 22.5375 32.4267 22.5302 32.427C22.4604 32.4289 22.4099 32.4199 22.4046 32.4188C22.3671 32.4112 22.343 32.3749 22.3511 32.3374Z" fill="url(#paint9_linear_147_487)"/>
</g>
</g>
<path d="M32.7275 52.8114L48.8483 53.1452V51.407L32.7275 51.1343V52.8114Z" fill="#D8DEE8"/>
<path d="M17.2701 52.5388L32.2645 52.8512V51.176L17.2701 50.9204V52.5388Z" fill="#D8DEE8"/>
<path d="M48.8929 55.2961V54.124L48.8491 54.123L32.6826 53.752V54.8857L48.8929 55.2961ZM48.8035 54.2123V55.2039L32.7723 54.7982V53.8447L48.8035 54.2123Z" fill="#D8DEE8"/>
<path d="M32.3093 54.9065V53.7735L32.2655 53.7725L17.2255 53.4263V54.5236L32.3093 54.9065ZM32.2197 53.8618V54.814L17.3147 54.4358V53.5188L32.2197 53.8618Z" fill="#D8DEE8"/>
<path d="M48.8929 57.0142V55.8421L32.6826 55.4092V56.543L48.8929 57.0142ZM48.8035 55.9298V56.9212L32.7723 56.4552V55.5017L48.8035 55.9298Z" fill="#D8DEE8"/>
<path d="M32.3093 56.5632V55.4302L17.2255 55.0264V56.1237L32.3093 56.5632ZM32.2197 55.5179V56.4702L17.3147 56.0359V55.1189L32.2197 55.5179Z" fill="#D8DEE8"/>
<path d="M48.8929 58.7329V57.5608L32.6826 57.0674V58.2012L48.8929 58.7329ZM48.8035 57.6483V58.6396L32.7723 58.1137V57.1601L48.8035 57.6483Z" fill="#D8DEE8"/>
<path d="M32.3093 58.2189V57.0859L17.2255 56.6255V57.7228L32.3093 58.2189ZM32.2197 57.1734V58.1256L17.3147 57.6356V56.7185L32.2197 57.1734Z" fill="#D8DEE8"/>
<path opacity="0.3" d="M41.8992 7.50254L44.4798 7.7951C44.9048 7.8432 45.234 8.15189 45.2686 8.53484L45.6779 11.4787L30.4828 11.5987L33.3639 8.0327L41.5395 7.38916C41.648 7.44757 41.7697 7.48774 41.8992 7.50254Z" fill="#97A6B7"/>
<path d="M22.1909 9.68867C22.2551 9.3118 22.5602 9.04196 22.9511 9.01685L25.3763 8.86066C26.4771 8.78983 27.2669 7.90633 27.2037 6.80954L27.0575 4.26817C27.0305 3.798 27.3697 3.414 27.846 3.37647L28.6427 3.31357C29.2501 3.26573 29.6444 2.73822 29.5466 2.13961C29.3759 1.09383 30.0995 0.17306 31.1738 0.0795033C32.2565 -0.0148467 33.2849 0.765853 33.4684 1.82485C33.4957 1.9821 33.5539 2.13697 33.6464 2.2744C33.9049 2.65814 34.3484 2.86322 34.7779 2.8294L35.5994 2.76465C36.0973 2.72527 36.5781 3.05404 36.7141 3.52817L37.4515 6.0957C37.7703 7.20597 38.9031 7.98958 40.087 7.9132L42.7473 7.74168C43.183 7.71366 43.6161 7.95073 43.8247 8.33235L45.4931 11.3812C45.6297 11.6309 45.4734 11.9071 45.1874 11.9221L22.1112 13.1495C21.8587 13.163 21.639 12.9235 21.6807 12.6801L22.1909 9.68867ZM31.5466 2.27387C31.8643 2.24823 32.0795 1.97575 32.0268 1.66575C31.9741 1.35547 31.6737 1.12581 31.3562 1.1525C31.0393 1.1792 30.8254 1.45141 30.8778 1.76062C30.93 2.06984 31.2294 2.29977 31.5466 2.27387Z" fill="#97A6B7"/>
<path opacity="0.5" d="M26.1718 11.0222C28.2062 9.74779 29.8048 10.5874 31.0597 9.17217C32.4032 7.65702 31.4359 5.71953 32.8389 4.76652C33.7371 4.15628 34.56 4.66054 35.6154 4.47845C36.0018 4.41185 36.4126 4.2538 36.8365 3.9541L37.4515 6.09535C37.7703 7.20562 38.9031 7.98922 40.0869 7.91285L42.7473 7.74132C43.183 7.71331 43.6161 7.95037 43.8247 8.332L45.4931 11.3808C45.6297 11.6306 45.4734 11.9067 45.1874 11.9218L24.2159 13.0371C24.7274 12.213 25.3699 11.5246 26.1718 11.0222Z" fill="white"/>
<path d="M57.7309 73.1744C57.7451 73.1744 57.759 73.1709 57.7715 73.1643L63.1903 70.2731C63.2241 70.2551 63.2422 70.2168 63.2348 70.1787C63.2272 70.1409 63.196 70.1124 63.158 70.1089L36.6548 67.603C36.6433 67.6017 36.6317 67.6033 36.6205 67.6067L29.3153 69.9393C29.2762 69.9517 29.2511 69.99 29.2553 70.0313C29.2595 70.0725 29.2914 70.105 29.3323 70.1095L57.7215 73.1739C57.7246 73.1744 57.7278 73.1744 57.7309 73.1744ZM62.8526 70.2556L57.7136 72.9976L29.7615 69.9802L36.6559 67.7788L62.8526 70.2556Z" fill="#B7C0CE"/>
<path d="M57.731 73.1741C57.7789 73.1741 57.8177 73.135 57.8177 73.0867V50.7374L63.0631 49.4607V70.1956C63.0631 70.2437 63.1019 70.2829 63.1499 70.2829C63.1979 70.2829 63.2367 70.2437 63.2367 70.1956V49.3497C63.2367 49.323 63.2246 49.2976 63.2037 49.2809C63.1827 49.2643 63.1554 49.2585 63.1297 49.2646L57.7105 50.5839C57.6717 50.5934 57.6442 50.6285 57.6442 50.6687V73.0869C57.6442 73.135 57.683 73.1741 57.731 73.1741Z" fill="#B7C0CE"/>
<path d="M29.3415 70.11C29.3895 70.11 29.4283 70.0709 29.4283 70.0226V49.4963L36.6182 48.4471V67.69C36.6182 67.7381 36.657 67.7775 36.7047 67.7775C36.7526 67.7775 36.7914 67.7383 36.7914 67.69V48.3461C36.7914 48.3208 36.7804 48.2967 36.7616 48.2801C36.7427 48.2634 36.7175 48.256 36.6923 48.2597L29.3292 49.334C29.2865 49.3401 29.255 49.3771 29.255 49.4205V70.0223C29.255 70.0709 29.2938 70.11 29.3415 70.11Z" fill="#B7C0CE"/>
<path d="M63.1493 49.4376C63.1957 49.4376 63.2339 49.4006 63.2358 49.3536C63.2376 49.3055 63.2004 49.2648 63.1524 49.2629L36.7074 48.2593C36.6592 48.2585 36.6193 48.295 36.6175 48.3433C36.6157 48.3914 36.6529 48.4322 36.7009 48.434L63.1459 49.4376C63.1469 49.4376 63.148 49.4376 63.1493 49.4376Z" fill="#B7C0CE"/>
<path d="M42.5087 36.8516V67.0845C42.5087 68.8007 41.1288 70.1922 39.4261 70.1922C37.7236 70.1922 36.3434 68.801 36.3434 67.0845V36.8516H42.5087Z" fill="white"/>
<path d="M39.4263 69.9513C40.9943 69.9513 42.2699 68.6653 42.2699 67.0846V46.4224H36.5827V67.0846C36.5827 68.6653 37.8581 69.9513 39.4263 69.9513Z" fill="url(#paint10_linear_147_487)"/>
<path d="M39.4263 47.2341C37.8558 47.2341 36.5827 46.8707 36.5827 46.4225C36.5827 45.9742 37.8558 45.6108 39.4263 45.6108C40.9968 45.6108 42.2699 45.9742 42.2699 46.4225C42.2699 46.8707 40.9968 47.2341 39.4263 47.2341Z" fill="url(#paint11_linear_147_487)"/>
<path opacity="0.5" d="M40.2492 67.6873C40.7688 65.7543 39.1046 64.7849 38.8873 61.5445C38.6417 57.8818 40.6634 57.5581 40.7512 53.8842C40.8613 49.2767 37.7252 47.9476 38.7442 44.4173C39.3167 42.4336 40.4689 42.2922 41.1814 39.8645C41.4908 38.8105 41.5812 37.7888 41.5487 36.8511H42.509V67.084C42.509 68.8002 41.129 70.1917 39.4263 70.1917C39.0737 70.1917 38.7355 70.1312 38.4202 70.0215C39.5558 69.2371 40.0523 68.4202 40.2492 67.6873Z" fill="white"/>
<path d="M35.9138 36.3233V36.3214H35.9143H36.3615C36.9629 36.0053 38.1098 35.7915 39.4266 35.7915H39.4269H39.4271C40.7439 35.7915 41.8908 36.0053 42.4922 36.3214H42.9394H42.94V36.3238C42.9835 36.4813 42.9756 36.7041 42.94 36.8624V36.9478H42.9158H42.9156C42.7132 37.4632 41.2292 37.8633 39.4274 37.8633H39.4271H39.4269C37.6251 37.8633 36.1411 37.4632 35.9387 36.9478H35.9384C35.9374 36.9452 35.9366 36.9422 35.9358 36.9393C35.934 36.9343 35.9324 36.929 35.9308 36.9237C35.881 36.7665 35.864 36.5022 35.9138 36.3233Z" fill="url(#paint12_linear_147_487)"/>
<path d="M39.4263 37.2371C37.4864 37.2371 35.9137 36.8379 35.9137 36.3456C35.9137 35.8532 37.4864 35.4541 39.4263 35.4541C41.3663 35.4541 42.9389 35.8532 42.9389 36.3456C42.9389 36.8379 41.3663 37.2371 39.4263 37.2371Z" fill="url(#paint13_linear_147_487)"/>
<path d="M39.4263 37.1165C37.7484 37.1165 36.3882 36.7713 36.3882 36.3456C36.3882 35.9198 37.7484 35.5747 39.4263 35.5747C41.1042 35.5747 42.4644 35.9198 42.4644 36.3456C42.4644 36.7713 41.1042 37.1165 39.4263 37.1165Z" fill="url(#paint14_linear_147_487)"/>
<path d="M50.1613 37.189V67.422C50.1613 69.1383 48.7813 70.5297 47.0786 70.5297C45.3762 70.5297 43.996 69.1385 43.996 67.422V37.189H50.1613Z" fill="white"/>
<path d="M47.0786 70.2887C48.6465 70.2887 49.9222 69.0027 49.9222 67.422V47.1504H44.235V67.422C44.235 69.0027 45.5106 70.2887 47.0786 70.2887Z" fill="url(#paint15_linear_147_487)"/>
<path d="M47.0786 47.9489C45.5081 47.9489 44.235 47.5915 44.235 47.1505C44.235 46.7095 45.5081 46.3521 47.0786 46.3521C48.6491 46.3521 49.9222 46.7095 49.9222 47.1505C49.9222 47.5915 48.6491 47.9489 47.0786 47.9489Z" fill="url(#paint16_linear_147_487)"/>
<path opacity="0.5" d="M47.9018 68.0249C48.4214 66.0919 46.7572 65.1225 46.5399 61.8821C46.2943 58.2193 48.316 57.8956 48.4035 54.2217C48.5136 49.6142 45.3775 48.2851 46.3965 44.7547C46.969 42.771 48.1212 42.6296 48.8337 40.2019C49.1431 39.1479 49.2335 38.1262 49.201 37.1885H50.1613V67.422C50.1613 69.1383 48.7813 70.5298 47.0786 70.5298C46.726 70.5298 46.3878 70.4693 46.0725 70.3596C47.2084 69.5746 47.7046 68.7577 47.9018 68.0249Z" fill="white"/>
<path d="M43.566 36.6607V36.6588H43.5666H44.0138C44.6152 36.3427 45.7621 36.1289 47.0789 36.1289H47.0791H47.0794C48.3962 36.1289 49.5431 36.3427 50.1445 36.6588H50.5917H50.5922V36.6612C50.6358 36.8187 50.6279 37.0415 50.5922 37.1998V37.2852H50.5681H50.5679C50.3655 37.8006 48.8814 38.2007 47.0797 38.2007H47.0794C47.0791 38.2007 47.0791 38.2007 47.0791 38.2007C45.2774 38.2007 43.7933 37.8006 43.5909 37.2852H43.5907C43.5896 37.2826 43.5888 37.2796 43.5881 37.2767C43.5862 37.2717 43.5847 37.2664 43.5831 37.2611C43.5335 37.1039 43.5165 36.8399 43.566 36.6607Z" fill="url(#paint17_linear_147_487)"/>
<path d="M47.0787 37.5744C45.1387 37.5744 43.5661 37.1753 43.5661 36.6829C43.5661 36.1906 45.1387 35.7915 47.0787 35.7915C49.0186 35.7915 50.5912 36.1906 50.5912 36.6829C50.5912 37.1753 49.0186 37.5744 47.0787 37.5744Z" fill="url(#paint18_linear_147_487)"/>
<path d="M47.0786 37.454C45.4007 37.454 44.0405 37.1088 44.0405 36.683C44.0405 36.2573 45.4007 35.9121 47.0786 35.9121C48.7565 35.9121 50.1167 36.2573 50.1167 36.683C50.1167 37.1088 48.7565 37.454 47.0786 37.454Z" fill="url(#paint19_linear_147_487)"/>
<path d="M57.3535 37.4292V67.6622C57.3535 69.3784 55.9735 70.7699 54.2708 70.7699C52.5684 70.7699 51.1881 69.3787 51.1881 67.6622V37.4292H57.3535Z" fill="white"/>
<path d="M54.2708 70.5293C55.8387 70.5293 57.1144 69.2433 57.1144 67.6626V50.3418H51.4272V67.6626C51.4272 69.2433 52.7029 70.5293 54.2708 70.5293Z" fill="url(#paint20_linear_147_487)"/>
<path d="M51.4272 50.3422C51.4272 50.9963 52.7002 51.5267 54.2708 51.5267C55.8414 51.5267 57.1144 50.9963 57.1144 50.3422C57.1144 49.6881 55.8414 49.1577 54.2708 49.1577C52.7002 49.1577 51.4272 49.6879 51.4272 50.3422Z" fill="url(#paint21_linear_147_487)"/>
<path opacity="0.5" d="M55.0937 68.2655C55.6133 66.3325 53.9491 65.3631 53.7318 62.1227C53.4862 58.46 55.5079 58.1362 55.5957 54.4624C55.7058 49.8549 52.5697 48.5258 53.5887 44.9954C54.1612 43.0117 55.3134 42.8703 56.0259 40.4426C56.3353 39.3886 56.4257 38.3669 56.3932 37.4292H57.3535V67.6622C57.3535 69.3784 55.9735 70.7699 54.2708 70.7699C53.9182 70.7699 53.58 70.7094 53.2646 70.5997C54.4003 69.8153 54.8968 68.9984 55.0937 68.2655Z" fill="white"/>
<path d="M50.7582 36.9014V36.8995H50.7587H51.206C51.8073 36.5834 52.9543 36.3696 54.2711 36.3696H54.2713H54.2716C55.5884 36.3696 56.7353 36.5834 57.3367 36.8995H57.7839H57.7844V36.9019C57.828 37.0594 57.8201 37.2822 57.7844 37.4405V37.5259H57.7603H57.7601C57.5577 38.0412 56.0736 38.4414 54.2718 38.4414H54.2716H54.2713C52.4695 38.4414 50.9855 38.0412 50.7831 37.5259H50.7828C50.7818 37.5232 50.781 37.5203 50.7802 37.5174C50.7784 37.5124 50.7768 37.5071 50.7752 37.5018C50.7254 37.3448 50.7086 37.0806 50.7582 36.9014Z" fill="url(#paint22_linear_147_487)"/>
<path d="M54.2708 37.815C52.3308 37.815 50.7582 37.4159 50.7582 36.9236C50.7582 36.4313 52.3308 36.0322 54.2708 36.0322C56.2107 36.0322 57.7834 36.4313 57.7834 36.9236C57.7834 37.4159 56.2107 37.815 54.2708 37.815Z" fill="url(#paint23_linear_147_487)"/>
<path d="M54.2708 37.6947C52.5929 37.6947 51.2327 37.3495 51.2327 36.9238C51.2327 36.498 52.5929 36.1528 54.2708 36.1528C55.9487 36.1528 57.3089 36.498 57.3089 36.9238C57.3089 37.3495 55.9487 37.6947 54.2708 37.6947Z" fill="url(#paint24_linear_147_487)"/>
<path d="M57.731 50.7565C57.7771 50.7565 57.8154 50.7198 57.8175 50.673C57.8196 50.6249 57.7826 50.584 57.7346 50.5818L29.3453 49.3336C29.2971 49.3315 29.2569 49.3687 29.2549 49.4171C29.2528 49.4655 29.2897 49.5062 29.3377 49.5083L57.727 50.7565C57.7283 50.7565 57.7297 50.7565 57.731 50.7565Z" fill="#B7C0CE"/>
<path d="M0.0369573 64.5759C-0.232274 67.2888 1.00378 69.6347 2.79769 69.8154C4.5916 69.9965 6.26414 67.944 6.53337 65.2311C6.8026 62.5182 5.56655 60.1724 3.77263 59.9916C1.97872 59.8105 0.306188 61.863 0.0369573 64.5759Z" fill="url(#paint25_linear_147_487)"/>
<path d="M0.498322 64.6228C0.22909 67.3357 1.46514 69.6815 3.25905 69.8623C5.05296 70.0433 6.7255 67.9909 6.99473 65.278C7.26396 62.565 6.02792 60.2192 4.234 60.0385C2.44009 59.8574 0.767553 61.9099 0.498322 64.6228Z" fill="url(#paint26_linear_147_487)"/>
<path d="M3.33263 65.2678L20.1832 66.9674C20.3274 66.982 20.4561 66.8757 20.4706 66.7304L20.4889 66.5454C20.5033 66.4 20.3979 66.2702 20.2538 66.2557L3.40315 64.556C3.25897 64.5415 3.13025 64.6477 3.11583 64.7931L3.09748 64.9781C3.08306 65.1235 3.18844 65.253 3.33263 65.2678Z" fill="url(#paint27_linear_147_487)"/>
<path opacity="0.5" d="M15.9531 70.9045C14.2437 70.732 13.066 68.4966 13.3227 65.9117C13.5794 63.3268 15.1732 61.3711 16.8826 61.5436C18.592 61.7161 19.7697 63.9515 19.513 66.5364C19.2563 69.1213 17.6625 71.077 15.9531 70.9045Z" fill="white"/>
<path d="M17.1726 66.304C16.9307 68.7415 18.0414 70.8494 19.6534 71.012C21.2654 71.1745 22.7681 69.3303 23.0101 66.8928C23.252 64.4553 22.1413 62.3473 20.5293 62.1848C18.9175 62.0222 17.4146 63.8664 17.1726 66.304Z" fill="url(#paint28_linear_147_487)"/>
<path opacity="0.69" d="M16.9071 61.3163L45.152 64.1653C46.9459 64.3463 48.182 66.6921 47.9128 69.4048C47.6435 72.1177 45.971 74.1701 44.1771 73.9891L15.9321 71.1401C14.1382 70.9591 12.9022 68.6132 13.1714 65.9006C13.4406 63.1879 15.1132 61.1355 16.9071 61.3163Z" fill="url(#paint29_linear_147_487)"/>
<path d="M44.2125 73.6328C44.9583 73.7081 45.7146 73.3251 46.3425 72.5547C47.0041 71.7429 47.4364 70.6115 47.5596 69.3688C47.6828 68.1264 47.4815 66.9311 46.9926 66.0032C46.5286 65.1226 45.8625 64.5961 45.1166 64.5211L20.7552 62.064C20.0094 61.9887 19.2531 62.3716 18.6253 63.142C17.9636 63.9539 17.5313 65.0853 17.4081 66.3277C17.2849 67.5701 17.4862 68.7654 17.9751 69.6933C18.4391 70.5739 19.1053 71.1004 19.8511 71.1754L44.2125 73.6328Z" fill="url(#paint30_linear_147_487)"/>
<path opacity="0.5" d="M44.1742 73.9858C42.3804 73.8048 41.1446 71.459 41.4139 68.7464C41.6833 66.0337 43.3558 63.9814 45.1496 64.1625C46.9435 64.3435 48.1793 66.6893 47.91 69.4019C47.6406 72.1145 45.9681 74.1668 44.1742 73.9858Z" fill="white"/>
<path opacity="0.5" d="M16.9071 61.3163L43.7076 64.0196C42.4031 64.7197 41.3624 66.47 41.122 68.6121C39.5414 68.2854 38.2818 67.269 35.574 67.2494C31.9461 67.2233 31.7667 69.031 28.4067 69.0428C24.32 69.0574 23.2753 66.3879 19.4248 66.1238C17.9706 66.0242 15.8813 66.2515 13.2356 67.8311C13.1305 67.2288 13.1043 66.576 13.1714 65.9005C13.4406 63.1879 15.1132 61.1355 16.9071 61.3163Z" fill="white"/>
<path d="M45.0708 68.9384L63.0768 70.7546C63.1743 70.7643 63.2453 70.8521 63.2356 70.9504C63.2259 71.0487 63.1389 71.1203 63.0414 71.1105L45.0354 69.2944C44.9379 69.2846 44.8668 69.1969 44.8765 69.0986C44.8862 69.0002 44.9732 68.9286 45.0708 68.9384Z" fill="url(#paint31_linear_147_487)"/>
<path d="M43.9288 69.0024C43.8502 69.7939 44.2109 70.4781 44.7342 70.5309C45.2574 70.5838 45.7456 69.9849 45.824 69.1934C45.9026 68.4019 45.5419 67.7177 45.0186 67.6649C44.4953 67.612 44.0075 68.2109 43.9288 69.0024Z" fill="#D8DEE8"/>
<path opacity="0.5" d="M44.1352 69.0232C44.0678 69.7014 44.3769 70.2878 44.8254 70.333C45.274 70.3782 45.6921 69.8652 45.7592 69.1871C45.8266 68.5089 45.5175 67.9225 45.069 67.8773C44.6204 67.8321 44.2023 68.3451 44.1352 69.0232Z" fill="#D8DEE8"/>
<path d="M45.2435 69.7955L49.2519 70.1999C49.4904 70.224 49.703 70.0485 49.7269 69.8082L49.7623 69.4509C49.7861 69.2104 49.6121 68.9961 49.3738 68.972L45.3654 68.5676C45.1269 68.5436 44.9143 68.7191 44.8904 68.9593L44.855 69.3166C44.8312 69.5569 45.005 69.7715 45.2435 69.7955Z" fill="#D8DEE8"/>
<path d="M45.7807 68.83L48.9493 69.1495C49.2411 69.1789 49.4655 69.3224 49.4511 69.4699C49.4364 69.6174 49.1881 69.713 48.8963 69.6834L45.7277 69.3639C45.4359 69.3346 45.2115 69.191 45.2259 69.0436C45.2406 68.8963 45.4891 68.8007 45.7807 68.83Z" fill="white"/>
<path d="M5.28534 63.6996L5.08112 63.466C4.75553 63.0934 4.80482 62.5296 5.19149 62.2077L20.3512 49.585L21.6271 51.1707L6.56831 63.7887C6.18452 64.1103 5.61015 64.071 5.28534 63.6996Z" fill="#D8DEE8"/>
<path d="M37.3079 52.5064C32.1878 56.9258 24.4474 56.2077 20.0079 50.7159C15.4616 45.0919 16.2174 36.7832 21.704 32.3559C27.0918 28.0084 34.8486 29.2006 39.0276 34.8288C43.1117 40.3294 42.3394 48.1634 37.3079 52.5064ZM36.1062 50.9548C40.3607 47.3016 41.0082 40.6918 37.5493 36.0641C34.0226 31.3458 27.5094 30.3769 23.0032 34.0336C18.4279 37.7466 17.7919 44.6907 21.5769 49.4055C25.2871 54.0274 31.7888 54.6622 36.1062 50.9548Z" fill="#D8DEE8"/>
<path opacity="0.3" d="M20.3515 49.585L18.4187 51.1945C18.5608 51.9701 18.4339 52.5019 18.2394 52.8751C17.5072 54.2792 15.5929 53.887 13.9626 55.8575C13.1444 56.8465 13.4876 57.1129 12.6663 57.9079C11.3083 59.2224 10.2039 58.655 9.00872 59.8345C7.79993 61.0275 8.17822 62.3495 7.33723 62.6494C6.9773 62.7779 6.41787 62.71 5.50872 61.9438L5.19178 62.2078C4.80511 62.5297 4.75582 63.0937 5.08141 63.4663L5.28563 63.7C5.61017 64.0713 6.18482 64.1107 6.56861 63.7888L21.6274 51.1707L20.3515 49.585Z" fill="#D8DEE8"/>
<path opacity="0.8" d="M36.9495 51.6103C32.4848 55.4477 25.7566 54.797 21.9132 50.0159C17.9898 45.135 18.6478 37.9423 23.3888 34.0988C28.0557 30.3155 34.7964 31.3243 38.443 36.2088C42.0175 40.9963 41.3469 47.8308 36.9495 51.6103Z" fill="white"/>
<path d="M37.931 52.8775C32.8109 57.2969 25.0706 56.5789 20.631 51.087C16.0847 45.463 16.8405 37.1546 22.3271 32.727C27.7149 28.3795 35.4717 29.5717 39.6507 35.1999C43.7348 40.7005 42.9625 48.5345 37.931 52.8775ZM36.729 51.3256C40.9832 47.6724 41.631 41.0626 38.1722 36.435C34.6454 31.7166 28.1323 30.7478 23.6261 34.4044C19.0507 38.1174 18.4148 45.0615 22.1997 49.7764C25.9102 54.3985 32.4119 55.0331 36.729 51.3256Z" fill="url(#paint32_linear_147_487)"/>
<path d="M37.5068 52.3301C32.6698 56.4976 25.3675 55.8075 21.1867 50.623C16.9112 45.3209 17.6245 37.4965 22.7874 33.3221C27.8624 29.2185 35.1797 30.3304 39.1288 35.6365C42.9929 40.8284 42.2646 48.2307 37.5068 52.3301ZM36.729 51.3258C40.9832 47.6726 41.631 41.0628 38.1722 36.4351C34.6454 31.7168 28.1322 30.748 23.626 34.4046C19.0507 38.1176 18.4147 45.0617 22.1996 49.7765C25.9102 54.3986 32.4118 55.0332 36.729 51.3258Z" fill="url(#paint33_linear_147_487)"/>
</g>
<defs>
<linearGradient id="paint0_linear_147_487" x1="45.568" y1="6.14626" x2="21.6862" y2="6.63909" gradientUnits="userSpaceOnUse">
<stop stop-color="#444B8C"/>
<stop offset="0.9964" stop-color="#26264F"/>
</linearGradient>
<linearGradient id="paint1_linear_147_487" x1="9.58155" y1="-3.84327" x2="62.9462" y2="83.2898" gradientUnits="userSpaceOnUse">
<stop stop-color="white"/>
<stop offset="1" stop-color="#D8DEE8"/>
</linearGradient>
<linearGradient id="paint2_linear_147_487" x1="24.3622" y1="10.7886" x2="33.047" y2="29.2616" gradientUnits="userSpaceOnUse">
<stop stop-color="#FFC444"/>
<stop offset="0.9964" stop-color="#F36F56"/>
</linearGradient>
<linearGradient id="paint3_linear_147_487" x1="17.2551" y1="13.2982" x2="65.1442" y2="127.736" gradientUnits="userSpaceOnUse">
<stop stop-color="#FFC444"/>
<stop offset="0.9964" stop-color="#F36F56"/>
</linearGradient>
<linearGradient id="paint4_linear_147_487" x1="27.3811" y1="31.2728" x2="25.2842" y2="36.1351" gradientUnits="userSpaceOnUse">
<stop stop-color="#FF9085"/>
<stop offset="1" stop-color="#FB6FBB"/>
</linearGradient>
<linearGradient id="paint5_linear_147_487" x1="27.596" y1="31.0429" x2="27.9256" y2="33.6698" gradientUnits="userSpaceOnUse">
<stop stop-color="#FF9085"/>
<stop offset="1" stop-color="#FB6FBB"/>
</linearGradient>
<linearGradient id="paint6_linear_147_487" x1="25.0261" y1="30.3731" x2="23.0026" y2="35.0651" gradientUnits="userSpaceOnUse">
<stop stop-color="#FF9085"/>
<stop offset="1" stop-color="#FB6FBB"/>
</linearGradient>
<linearGradient id="paint7_linear_147_487" x1="23.3104" y1="31.1873" x2="23.6352" y2="33.7768" gradientUnits="userSpaceOnUse">
<stop stop-color="#FF9085"/>
<stop offset="1" stop-color="#FB6FBB"/>
</linearGradient>
<linearGradient id="paint8_linear_147_487" x1="25.9768" y1="30.7767" x2="24.0025" y2="35.3551" gradientUnits="userSpaceOnUse">
<stop stop-color="#FF9085"/>
<stop offset="1" stop-color="#FB6FBB"/>
</linearGradient>
<linearGradient id="paint9_linear_147_487" x1="28.8982" y1="32.3483" x2="22.3495" y2="32.3483" gradientUnits="userSpaceOnUse">
<stop stop-color="#AB316D"/>
<stop offset="1" stop-color="#792D3D"/>
</linearGradient>
<linearGradient id="paint10_linear_147_487" x1="44.2023" y1="63.6992" x2="8.96099" y2="16.7123" gradientUnits="userSpaceOnUse">
<stop stop-color="#FFC444"/>
<stop offset="0.9964" stop-color="#F36F56"/>
</linearGradient>
<linearGradient id="paint11_linear_147_487" x1="38.8059" y1="45.2001" x2="39.2942" y2="46.1468" gradientUnits="userSpaceOnUse">
<stop stop-color="#FF9085"/>
<stop offset="1" stop-color="#FB6FBB"/>
</linearGradient>
<linearGradient id="paint12_linear_147_487" x1="38.8443" y1="34.9696" x2="39.612" y2="37.0856" gradientUnits="userSpaceOnUse">
<stop offset="0.494" stop-color="#EBEFF2"/>
<stop offset="1" stop-color="white"/>
</linearGradient>
<linearGradient id="paint13_linear_147_487" x1="38.9248" y1="34.9408" x2="39.6925" y2="37.0568" gradientUnits="userSpaceOnUse">
<stop offset="0.494" stop-color="#EBEFF2"/>
<stop offset="1" stop-color="white"/>
</linearGradient>
<linearGradient id="paint14_linear_147_487" x1="39.3644" y1="37.187" x2="39.4939" y2="35.4527" gradientUnits="userSpaceOnUse">
<stop offset="0.494" stop-color="#EBEFF2"/>
<stop offset="1" stop-color="white"/>
</linearGradient>
<linearGradient id="paint15_linear_147_487" x1="51.7858" y1="64.1385" x2="17.0666" y2="17.848" gradientUnits="userSpaceOnUse">
<stop offset="0.00359712" stop-color="#E38DDD"/>
<stop offset="1" stop-color="#9571F6"/>
</linearGradient>
<linearGradient id="paint16_linear_147_487" x1="46.8645" y1="46.6719" x2="45.6199" y2="43.936" gradientUnits="userSpaceOnUse">
<stop offset="0.00359712" stop-color="#E38DDD"/>
<stop offset="1" stop-color="#9571F6"/>
</linearGradient>
<linearGradient id="paint17_linear_147_487" x1="46.4968" y1="35.3071" x2="47.2645" y2="37.4231" gradientUnits="userSpaceOnUse">
<stop offset="0.494" stop-color="#EBEFF2"/>
<stop offset="1" stop-color="white"/>
</linearGradient>
<linearGradient id="paint18_linear_147_487" x1="46.5773" y1="35.2782" x2="47.345" y2="37.3942" gradientUnits="userSpaceOnUse">
<stop offset="0.494" stop-color="#EBEFF2"/>
<stop offset="1" stop-color="white"/>
</linearGradient>
<linearGradient id="paint19_linear_147_487" x1="47.0169" y1="37.5245" x2="47.1464" y2="35.7902" gradientUnits="userSpaceOnUse">
<stop offset="0.494" stop-color="#EBEFF2"/>
<stop offset="1" stop-color="white"/>
</linearGradient>
<linearGradient id="paint20_linear_147_487" x1="58.4564" y1="65.1478" x2="27.681" y2="24.1156" gradientUnits="userSpaceOnUse">
<stop stop-color="#FF9085"/>
<stop offset="1" stop-color="#FB6FBB"/>
</linearGradient>
<linearGradient id="paint21_linear_147_487" x1="55.1332" y1="51.5107" x2="48.6108" y2="42.8142" gradientUnits="userSpaceOnUse">
<stop stop-color="#FF9085"/>
<stop offset="1" stop-color="#FB6FBB"/>
</linearGradient>
<linearGradient id="paint22_linear_147_487" x1="53.6889" y1="35.548" x2="54.4565" y2="37.664" gradientUnits="userSpaceOnUse">
<stop offset="0.494" stop-color="#EBEFF2"/>
<stop offset="1" stop-color="white"/>
</linearGradient>
<linearGradient id="paint23_linear_147_487" x1="53.7693" y1="35.5189" x2="54.5369" y2="37.6348" gradientUnits="userSpaceOnUse">
<stop offset="0.494" stop-color="#EBEFF2"/>
<stop offset="1" stop-color="white"/>
</linearGradient>
<linearGradient id="paint24_linear_147_487" x1="54.209" y1="37.7652" x2="54.3385" y2="36.0308" gradientUnits="userSpaceOnUse">
<stop offset="0.494" stop-color="#EBEFF2"/>
<stop offset="1" stop-color="white"/>
</linearGradient>
<linearGradient id="paint25_linear_147_487" x1="6.53327" y1="65.2309" x2="0.035856" y2="64.5864" gradientUnits="userSpaceOnUse">
<stop stop-color="#444B8C"/>
<stop offset="0.9964" stop-color="#26264F"/>
</linearGradient>
<linearGradient id="paint26_linear_147_487" x1="4.16228" y1="65.0502" x2="-13.8948" y2="60.781" gradientUnits="userSpaceOnUse">
<stop stop-color="#444B8C"/>
<stop offset="0.9964" stop-color="#26264F"/>
</linearGradient>
<linearGradient id="paint27_linear_147_487" x1="20.4799" y1="66.6373" x2="3.10384" y2="64.9137" gradientUnits="userSpaceOnUse">
<stop stop-color="#444B8C"/>
<stop offset="0.9964" stop-color="#26264F"/>
</linearGradient>
<linearGradient id="paint28_linear_147_487" x1="23.0101" y1="66.8927" x2="17.1718" y2="66.3136" gradientUnits="userSpaceOnUse">
<stop stop-color="#444B8C"/>
<stop offset="0.9964" stop-color="#26264F"/>
</linearGradient>
<linearGradient id="paint29_linear_147_487" x1="27.1132" y1="56.6665" x2="38.4017" y2="92.2528" gradientUnits="userSpaceOnUse">
<stop offset="0.00359712" stop-color="#E38DDD"/>
<stop offset="1" stop-color="#9571F6"/>
</linearGradient>
<linearGradient id="paint30_linear_147_487" x1="29.4299" y1="58.0633" x2="39.484" y2="89.7588" gradientUnits="userSpaceOnUse">
<stop stop-color="#FFC444"/>
<stop offset="0.9964" stop-color="#F36F56"/>
</linearGradient>
<linearGradient id="paint31_linear_147_487" x1="63.2356" y1="70.9499" x2="44.8735" y2="69.1285" gradientUnits="userSpaceOnUse">
<stop stop-color="#444B8C"/>
<stop offset="0.9964" stop-color="#26264F"/>
</linearGradient>
<linearGradient id="paint32_linear_147_487" x1="37.719" y1="54.1238" x2="26.9787" y2="38.849" gradientUnits="userSpaceOnUse">
<stop offset="0.494" stop-color="#EBEFF2"/>
<stop offset="1" stop-color="white"/>
</linearGradient>
<linearGradient id="paint33_linear_147_487" x1="22.0849" y1="31.6877" x2="36.6876" y2="52.0872" gradientUnits="userSpaceOnUse">
<stop stop-color="#D8DEE8"/>
<stop offset="0.494" stop-color="#EBEFF2"/>
<stop offset="1" stop-color="white"/>
</linearGradient>
<clipPath id="clip0_147_487">
<rect width="63.2364" height="74" fill="white" transform="matrix(-1 0 0 1 63.2364 0)"/>
</clipPath>
</defs>
</svg>
