<svg xmlns="http://www.w3.org/2000/svg" viewBox="0 0 70 70"><defs><style>.cls-1{fill:#ece69e;}.cls-2{fill:#fff;}.cls-3{fill:#f9a320;}.cls-4{fill:#fcd69b;}.cls-5{fill:#3a3a3a;}</style></defs><title>KetQuaCanLamSang</title><g id="Layer_2" data-name="Layer 2"><g id="Layer_1-2" data-name="Layer 1"><rect class="cls-1" width="70" height="70"/><polygon class="cls-2" points="59.44 46.16 59.18 36.16 37.09 36.74 37.35 46.73 34.29 46.81 34.66 61.29 62.98 60.56 62.6 46.08 59.44 46.16"/><polygon class="cls-3" points="56.28 60.82 59.36 60.74 59.53 67.19 64.35 67.06 64.19 60.62 67.26 60.54 61.58 53.1 56.28 60.82"/><rect class="cls-4" x="37.33" y="45.14" width="21.82" height="1.03" transform="translate(-1.17 1.27) rotate(-1.49)"/><rect class="cls-4" x="39" y="41.77" width="18.66" height="1.03" transform="translate(-1.08 1.27) rotate(-1.49)"/><rect class="cls-4" x="40.5" y="38.78" width="15.41" height="1.03" transform="translate(-1 1.27) rotate(-1.49)"/><polygon class="cls-4" points="34.23 46.81 37.35 46.73 37.26 43.18 38.93 43.14 38.86 40.29 40.52 40.13 40.47 37.86 55.87 37.46 55.93 39.7 57.6 39.66 57.68 42.65 59.35 42.61 59.44 46.16 62.58 46.08 59.05 35.79 37.22 36.36 34.23 46.81"/><rect class="cls-4" x="43.34" y="51.11" width="10.49" height="1.59" transform="translate(-1.33 1.28) rotate(-1.49)"/><polygon class="cls-4" points="57.8 58.45 34.61 59.05 34.66 61.29 56.26 60.73 57.8 58.45"/><path class="cls-5" d="M55.09,60.39l-20.15.52-.36-13.83,16.49-.43a.29.29,0,0,0,.28-.24.28.28,0,0,0-.28-.33l-13.34.35-.08-3,21.44-.56.08,3-6.84.18s-.28.1-.27.26a.33.33,0,0,0,.29.3l10-.26.17,6.4a.26.26,0,0,0,.27.27c.15,0,.2-.29.2-.29L62.78,46l.08,0a.15.15,0,0,0,0,0s0,0,0,0h0L59.34,35.7a.28.28,0,0,0-.27-.19l-21.81.57a.28.28,0,0,0-.26.2L34,46.72a.05.05,0,0,1,0,0v0a.15.15,0,0,0,0,0v0l.38,14.46a.28.28,0,0,0,.29.27l20.42-.53a.29.29,0,0,0,.27-.2.28.28,0,0,0-.28-.36Zm-12.18-20a.29.29,0,0,0,.28-.24.28.28,0,0,0-.28-.33l-2.11.05,0-1.78,14.85-.39,0,1.78-11.33.29a.29.29,0,0,0-.28.24.28.28,0,0,0,.28.33l13-.34.06,2.24-18.1.47-.06-2.24Zm-5.4-3.79,21.35-.55,3.34,9.73-2.48.06-.09-3.36a.28.28,0,0,0-.29-.27l-1.39,0-.07-2.52a.28.28,0,0,0-.29-.27l-1.39,0-.05-2.06a.28.28,0,0,0-.29-.27l-15.41.4a.28.28,0,0,0-.27.29l.05,2.06-1.3,0a.28.28,0,0,0-.27.29l.07,2.52-1.39,0a.28.28,0,0,0-.27.29l.09,3.36-2.48.06Z"/><path class="cls-5" d="M43,51.26,43.11,54a.28.28,0,0,0,.29.27L53.89,54a.28.28,0,0,0,.27-.29L54.09,51a.28.28,0,0,0-.29-.27L43.31,51A.28.28,0,0,0,43,51.26Zm.62,2.41-.06-2.15,9.93-.26,0,1.12-9,.23a.29.29,0,0,0-.28.24.28.28,0,0,0,.28.33l9-.23v.47Z"/><path class="cls-5" d="M67.45,60.35l-5.7-7.51a.28.28,0,0,0-.45,0L56,60.61a.28.28,0,0,0,.07.39,1.11,1.11,0,0,1,.17.11L59,61l0,.8a.36.36,0,0,0,.33.27c.15,0,.32-.29.32-.29l0-1.08a.28.28,0,0,0-.29-.27l-2.53.07,4.76-7,5.12,6.7-2.53.07a.28.28,0,0,0-.27.29l.16,6.17-4.36.11-.1-3.69a.22.22,0,0,0-.24-.27c-.15,0-.22.29-.22.29l.1,4a.28.28,0,0,0,.29.27l4.83-.13a.28.28,0,0,0,.27-.29l-.16-6.17,2.77-.07s.27-.19.27-.34,0-.12-.06-.13Z"/><path class="cls-5" d="M40.39,62.45l-1.38,0a.29.29,0,0,0-.28.24A.28.28,0,0,0,39,63l1.38,0a.29.29,0,0,0,.28-.24A.28.28,0,0,0,40.39,62.45Z"/><path class="cls-5" d="M51.06,62.17l-8.39.22a.29.29,0,0,0-.28.24.28.28,0,0,0,.28.33l8.39-.22a.29.29,0,0,0,.28-.24A.28.28,0,0,0,51.06,62.17Z"/><path class="cls-5" d="M64.42,48.17l0-1c0-.22-.1-.34-.24-.36a.28.28,0,0,0-.32.28l0,1.07a.28.28,0,0,0,.34.27A.29.29,0,0,0,64.42,48.17Z"/><path class="cls-5" d="M64.54,52.92,64.47,50a.29.29,0,0,0-.23-.28.28.28,0,0,0-.32.28L64,52.95a.28.28,0,0,0,.34.26A.29.29,0,0,0,64.54,52.92Z"/><path class="cls-5" d="M42.88,34.9l1.75,0a.29.29,0,0,0,.28-.24.28.28,0,0,0-.28-.33l-1.75,0a.29.29,0,0,0-.28.24A.28.28,0,0,0,42.88,34.9Z"/><path class="cls-5" d="M46.14,34.82l7.19-.19a.29.29,0,0,0,.28-.24.28.28,0,0,0-.28-.33l-7.19.19a.29.29,0,0,0-.28.24A.28.28,0,0,0,46.14,34.82Z"/><path class="cls-5" d="M65.15,62.14l0,1.26a.29.29,0,0,0,.23.28.28.28,0,0,0,.32-.28l0-1.29a.28.28,0,0,0-.34-.27A.29.29,0,0,0,65.15,62.14Z"/></g></g></svg>