<svg xmlns="http://www.w3.org/2000/svg" viewBox="0 0 70 70"><defs><style>.cls-1{fill:#fdd0c7;}.cls-2{fill:#fff;}.cls-3{fill:#fcd69b;}.cls-4{fill:#f9a320;}.cls-5{fill:#f8800a;}.cls-6{fill:#3a3a3a;}</style></defs><title>LichSuKham</title><g id="Layer_2" data-name="Layer 2"><g id="Layer_1-2" data-name="Layer 1"><rect class="cls-1" width="70" height="70"/><path class="cls-2" d="M30,58.83a3.69,3.69,0,0,0,2.61-3.61V40.45a1.51,1.51,0,0,1,1.3-.78H60.31V50.81s6.51,1.27,7.06,7.39S62.26,67,58.42,67a8.87,8.87,0,0,1-9-8.21Z"/><path class="cls-3" d="M66,58.93a6.91,6.91,0,0,0-3.06-5.66,6.72,6.72,0,0,1-1.46,10,8.34,8.34,0,0,1-9.43,0,8.25,8.25,0,0,0,10.89,1.35A6.92,6.92,0,0,0,66,58.93Z"/><rect class="cls-4" x="32.49" y="39.77" width="25.7" height="4.28"/><rect class="cls-3" x="58.08" y="39.68" width="1.91" height="11.09"/><path class="cls-3" d="M49.47,58.83h0c0-4.44,3.76-8.12,8.6-8.34V49.4c-5.64,0-10.19,4.24-10.2,9.41v0Z"/><path class="cls-4" d="M58.21,50.57c-5.11,0-9.23,3.85-9.11,8.55.11,4.43,4.06,8,8.89,8.15,5.13.11,9.34-3.67,9.34-8.34s-4.08-8.35-9.11-8.35Zm0,15.14c-4.18,0-7.56-3.1-7.56-6.93s3.39-6.93,7.57-6.92,7.56,3.1,7.56,6.93-3.39,6.93-7.57,6.92h0Z"/><path class="cls-5" d="M58.74,58.83a.66.66,0,0,1-.68.63h0a.66.66,0,0,1-.68-.63h0a.66.66,0,0,1,.68-.63h0A.66.66,0,0,1,58.74,58.83Z"/><path class="cls-6" d="M56.87,44.35a.32.32,0,0,0,.33-.24.3.3,0,0,0-.31-.35H55.58a.32.32,0,0,0-.33.24.3.3,0,0,0,.31.35Z"/><path class="cls-6" d="M53.41,43.76h-7.6a.32.32,0,0,0-.33.24.3.3,0,0,0,.31.35h7.6a.32.32,0,0,0,.33-.24.3.3,0,0,0-.31-.35Z"/><path class="cls-6" d="M67.32,57.12a.32.32,0,0,0-.38-.23.29.29,0,0,0-.25.35c1.06,4.75-2.74,9.37-8.28,9.55a8.67,8.67,0,0,1-8.31-5C48.11,57,51.26,52,56.44,51a9.46,9.46,0,0,1,1.74-.16,9.57,9.57,0,0,1,1.81.18h-.08a9,9,0,0,1,3.34,1.38.34.34,0,0,0,.45-.06.27.27,0,0,0-.07-.41h0a9.65,9.65,0,0,0-3.34-1.43V39.68a.31.31,0,0,0-.32-.29H55.27a2.75,2.75,0,0,0-5.44,0H41a2.75,2.75,0,0,0-5.44,0H33.12A1.12,1.12,0,0,0,32,40.45V55.77a2.84,2.84,0,0,1-2.65,2.76.3.3,0,0,0-.3.31.31.31,0,0,0,.34.27H48.87c.18,4.71,4.5,8.4,9.64,8.23s9.17-4.12,9-8.83a7.85,7.85,0,0,0-.18-1.4Zm-7.65-6.68a10.64,10.64,0,0,0-1.27-.11V40.46a1,1,0,0,0-.13-.49h1.41ZM52.58,37.58a2,2,0,0,1,2.08,1.81H50.51A2,2,0,0,1,52.58,37.58Zm-14.25,0a2,2,0,0,1,2.08,1.81H36.26A2,2,0,0,1,38.34,37.57ZM51.28,51.44H44.7V48.13h6.58Zm-7.33,0H37.37V48.13H44ZM32.58,52h4.15v3.31H32.59Zm4.78,0H44v3.31H37.37Zm-.64-.58H32.59V48.13h4.14Zm-4.1,4.37h4.11V57a.3.3,0,0,0,.22.29.32.32,0,0,0,.42-.28h0V55.82h6.69V57c0,.16.1.29.28.29a.38.38,0,0,0,.36-.29h0V55.82h3.6a.26.26,0,0,0,.32-.25c0-.16-.32-.23-.32-.23h-3.6V52h6.9a.31.31,0,0,0,.32-.29v-3.6h4.3a.32.32,0,0,0,.33-.24.3.3,0,0,0-.31-.35H51.92V45.37a.31.31,0,0,0-.26-.3.31.31,0,0,0-.38.29v2.19H44.7V45.37a.31.31,0,0,0-.26-.3.31.31,0,0,0-.38.29v2.19H37.37V45.37a.31.31,0,0,0-.26-.3.31.31,0,0,0-.38.29v2.19H32.59V44.34H44.14a.32.32,0,0,0,.33-.24.3.3,0,0,0-.31-.35H32.7V40.45a.51.51,0,0,1,.53-.49h2.44s1.18,1.88,2.34,2v.26a.32.32,0,0,0,.33.29.29.29,0,0,0,.31-.29V40.94a.29.29,0,0,0-.31-.29.32.32,0,0,0-.33.29v.44c-.81-.12-1.68-1.31-1.68-1.31H49.89a2.64,2.64,0,0,0,2.35,2v.25a.29.29,0,0,0,.21.28.32.32,0,0,0,.43-.28V41a.29.29,0,0,0-.21-.28.32.32,0,0,0-.43.28v.34A2,2,0,0,1,50.55,40h6.68a.51.51,0,0,1,.53.49v9.89c-4.85.16-8.75,3.74-8.92,8.2H31.11A3.58,3.58,0,0,0,32.62,55.81Z"/><path class="cls-6" d="M66.09,55.78a.32.32,0,0,0,.29.18l.12,0a.28.28,0,0,0,.17-.38h0A8.41,8.41,0,0,0,65,53.12a.34.34,0,0,0-.45-.06.28.28,0,0,0-.07.41l0,0A7.85,7.85,0,0,1,66.09,55.78Z"/><path class="cls-6" d="M65.51,58.55h-.82c-.31.26-.12.58.16.58h.67a7.07,7.07,0,0,1-7,6.43v-.74h0c-.28-.29-.63-.11-.63.14v.61a7.07,7.07,0,0,1-7-6.43h.82c.31-.26.12-.58-.16-.58h-.67a7.07,7.07,0,0,1,7-6.43v.74h0c.28.29.63.11.63-.14v-.61a7.76,7.76,0,0,1,4.35,1.53.34.34,0,0,0,.45,0,.27.27,0,0,0,0-.41l0,0c-4.83-3.65-13-1.22-13.31,6.32a.3.3,0,0,0,0,.09,8.44,8.44,0,0,0,14.38,3.88,7,7,0,0,0,1.82-4.65h0a6.85,6.85,0,0,0-1.52-4.29.34.34,0,0,0-.59.12h0a.33.33,0,0,0,.07.22A6.32,6.32,0,0,1,65.51,58.55Z"/><path class="cls-6" d="M58.08,54.93a.31.31,0,0,0-.32.29v2.72a.9.9,0,0,0-.55,1.4,1,1,0,0,0,.7.41A1,1,0,0,0,59,59.13h2.06a.33.33,0,0,0,.32-.2.3.3,0,0,0-.31-.38H59a1,1,0,0,0-.65-.59V55.23A.31.31,0,0,0,58.08,54.93Zm.05,4.25a.35.35,0,1,1,.38-.35A.36.36,0,0,1,58.13,59.19Z"/><path class="cls-6" d="M47.33,59.9H39.83a.32.32,0,0,0-.33.24.3.3,0,0,0,.31.35h7.49a.32.32,0,0,0,.33-.24A.3.3,0,0,0,47.33,59.9Z"/><path class="cls-6" d="M37.65,59.9H36a.32.32,0,0,0-.33.24.3.3,0,0,0,.31.35h1.7a.32.32,0,0,0,.33-.24A.3.3,0,0,0,37.65,59.9Z"/><path class="cls-6" d="M62.43,45.34V44.16c0-.24-.11-.37-.26-.4a.31.31,0,0,0-.38.29h0v1.31a.31.31,0,0,0,.38.29A.31.31,0,0,0,62.43,45.34Z"/><path class="cls-6" d="M62.43,49.25v-1.4a.31.31,0,0,0-.26-.3.31.31,0,0,0-.38.29v1.43a.31.31,0,0,0,.38.29A.31.31,0,0,0,62.43,49.25Z"/><path class="cls-6" d="M30.89,47.82V42.24a.31.31,0,0,0-.26-.3.31.31,0,0,0-.38.29v5.61a.31.31,0,0,0,.38.29A.31.31,0,0,0,30.89,47.82Z"/><path class="cls-6" d="M30.89,51.16v-.52a.31.31,0,0,0-.26-.3.31.31,0,0,0-.38.29v.54a.31.31,0,0,0,.38.29A.31.31,0,0,0,30.89,51.16Z"/></g></g></svg>