<svg xmlns="http://www.w3.org/2000/svg" width="28.087" height="36" viewBox="0 0 28.087 36">
  <g id="lichsu_kcb" transform="translate(-50.755)">
    <path id="Path_1604" data-name="Path 1604" d="M50.755,13.329A13.323,13.323,0,0,1,76.893,9.682a2.106,2.106,0,0,0-.552,1.167L76.2,12.013l-.247,1.317H74.587a10.5,10.5,0,1,0-15.632,9.156L56.9,24.539A13.32,13.32,0,0,1,50.755,13.329ZM64.084,4.957A1.412,1.412,0,0,0,62.671,6.37v6.959a1.412,1.412,0,0,0,1.413,1.413h7.993a1.413,1.413,0,0,0,0-2.826H65.5V6.37A1.413,1.413,0,0,0,64.084,4.957ZM78.8,11.185a.708.708,0,0,0-.671-.688.716.716,0,0,0-.737.618l-.151,1.205-.264,1.407a10.6,10.6,0,0,1-.431,1.541l-.317.926-.449.987a9.011,9.011,0,0,1-.662,1.244c-.131.218-.263.439-.387.665-.13.176-.257.354-.383.534a11.488,11.488,0,0,1-1.067,1.352,12.6,12.6,0,0,1-1.267,1.3c-.136.127-.272.253-.406.382-.15.114-.3.23-.446.345a12.771,12.771,0,0,1-1.507,1.062,10.565,10.565,0,0,1-1.382.768c-.2.1-.391.193-.58.291-.24.086-.473.179-.7.271a8.194,8.194,0,0,1-1.267.429l-.934.259-.918.157a8.085,8.085,0,0,1-1.276.147l-.748.057-.106,0v-3.3a.707.707,0,0,0-1.207-.5l-6.078,6.078a.707.707,0,0,0,0,1l6.078,6.078a.707.707,0,0,0,1.207-.5V31.849l1.3-.238a14.2,14.2,0,0,0,2.068-.546l.836-.281L67.33,30.2A12.349,12.349,0,0,0,69,29.331c.229-.134.46-.269.7-.4.026-.014.05-.03.075-.047.184-.133.371-.264.56-.395A14.424,14.424,0,0,0,72,27.209a16.649,16.649,0,0,0,1.693-1.628l.382-.4c.016-.018.032-.035.048-.055l.346-.437a16.223,16.223,0,0,0,1.326-1.835,14.244,14.244,0,0,0,1.024-1.8c.1-.206.206-.409.312-.608a.836.836,0,0,0,.038-.084c.094-.253.194-.5.294-.741a11.251,11.251,0,0,0,.573-1.634l.326-1.159.185-1.019a12.155,12.155,0,0,0,.229-1.829l.068-.922Z" fill="#00003c"/>
  </g>
</svg>
