<svg xmlns="http://www.w3.org/2000/svg" width="36" height="36" viewBox="0 0 36 36">
  <g id="theodoisuckhoe" transform="translate(0 0)">
    <path id="Union_19" data-name="Union 19" d="M-2385.945-822a1.054,1.054,0,0,1-1.055-1.055,1.054,1.054,0,0,1,1.055-1.055h1.125v-11.742a1.055,1.055,0,0,1,1.055-1.055h4.218a1.055,1.055,0,0,1,1.055,1.055v11.742h2.11v-7.523a1.054,1.054,0,0,1,1.055-1.055h4.218a1.054,1.054,0,0,1,1.055,1.055v7.523h2.11V-840.07a1.054,1.054,0,0,1,1.055-1.055h4.218a1.054,1.054,0,0,1,1.055,1.055v15.961h2.11V-846.4a1.054,1.054,0,0,1,1.055-1.054h4.218a1.054,1.054,0,0,1,1.055,1.054v22.289h1.125a1.055,1.055,0,0,1,1.055,1.055,1.055,1.055,0,0,1-1.055,1.055Zm9.563-18.07a2.962,2.962,0,0,1,.039-.383l-3.122-1.562a3.148,3.148,0,0,1-2.19.89,3.167,3.167,0,0,1-3.164-3.164,3.167,3.167,0,0,1,3.164-3.164,3.167,3.167,0,0,1,3.164,3.164,3.194,3.194,0,0,1-.039.383l3.122,1.561a3.144,3.144,0,0,1,2.19-.89,3.114,3.114,0,0,1,1.355.318l4.236-4.235a3.13,3.13,0,0,1-.317-1.355,3.167,3.167,0,0,1,3.164-3.164,3.137,3.137,0,0,1,1.751.533l3.68-2.759a3.116,3.116,0,0,1-.157-.938,3.167,3.167,0,0,1,3.164-3.163,3.167,3.167,0,0,1,3.164,3.163,3.168,3.168,0,0,1-3.164,3.164,3.148,3.148,0,0,1-1.751-.532l-3.68,2.759a3.114,3.114,0,0,1,.158.938,3.167,3.167,0,0,1-3.164,3.164,3.133,3.133,0,0,1-1.355-.317l-4.234,4.235a3.13,3.13,0,0,1,.317,1.355,3.167,3.167,0,0,1-3.164,3.164A3.167,3.167,0,0,1-2376.383-840.07Z" transform="translate(2387 858)" fill="#00003c"/>
  </g>
</svg>
